<?xml version="1.0" standalone="no"?>
<!DOCTYPE svg PUBLIC "-//W3C//DTD SVG 20010904//EN"
 "http://www.w3.org/TR/2001/REC-SVG-20010904/DTD/svg10.dtd">
<svg version="1.0" xmlns="http://www.w3.org/2000/svg"
 width="398.000000pt" height="168.000000pt" viewBox="0 0 398.000000 168.000000"
 preserveAspectRatio="xMidYMid meet">

<g transform="translate(0.000000,168.000000) scale(0.100000,-0.100000)"
fill="#000000" stroke="none">
<path d="M560 1264 c-19 -8 -43 -23 -53 -32 -21 -19 -51 -72 -44 -78 2 -2 29
7 60 21 30 14 79 29 107 32 58 7 72 23 45 53 -22 24 -66 25 -115 4z"/>
<path d="M969 1259 c-30 -30 -19 -43 45 -51 32 -4 82 -19 112 -32 59 -27 70
-19 38 30 -42 64 -153 95 -195 53z"/>
<path d="M537 1102 c-28 -17 -67 -84 -67 -115 0 -22 29 -92 35 -86 2 3 -1 21
-7 41 -32 106 107 196 189 123 l28 -25 -36 16 c-48 22 -84 12 -109 -29 -28
-45 -25 -89 6 -126 46 -55 114 -39 153 36 26 51 0 132 -53 164 -38 23 -102 24
-139 1z m88 -78 c0 -12 -8 -20 -22 -22 -25 -4 -31 16 -11 36 17 17 33 10 33
-14z"/>
<path d="M976 1099 c-54 -42 -72 -120 -41 -179 31 -59 98 -68 147 -20 28 28
30 36 25 78 -8 76 -80 118 -133 77 -18 -14 -18 -15 6 -12 34 3 36 -36 3 -41
-18 -3 -23 2 -23 18 0 14 -4 19 -12 15 -7 -4 2 7 20 24 26 25 41 31 78 31 39
0 51 -5 81 -35 32 -32 35 -39 31 -82 -3 -27 -8 -57 -12 -68 -6 -16 -4 -15 12
5 45 55 34 132 -27 183 -42 35 -115 38 -155 6z"/>
<path d="M685 824 c-15 -15 -12 -19 37 -45 70 -37 149 -40 199 -6 19 13 42 26
53 30 15 6 16 10 6 22 -16 19 -40 19 -40 0 0 -25 -60 -55 -110 -55 -50 0 -110
30 -110 55 0 20 -14 19 -35 -1z"/>
<path d="M895 480 c10 -11 20 -20 23 -20 3 0 -3 9 -13 20 -10 11 -20 20 -23
20 -3 0 3 -9 13 -20z"/>
<path d="M1020 196 c0 -2 8 -10 18 -17 15 -13 16 -12 3 4 -13 16 -21 21 -21
13z"/>
</g>
</svg>
