<?xml version="1.0" standalone="no"?>
<!DOCTYPE svg PUBLIC "-//W3C//DTD SVG 20010904//EN"
 "http://www.w3.org/TR/2001/REC-SVG-20010904/DTD/svg10.dtd">
<svg version="1.0" xmlns="http://www.w3.org/2000/svg"
 width="1024.000000pt" height="1024.000000pt" viewBox="0 0 1024.000000 1024.000000"
 preserveAspectRatio="xMidYMid meet">

<g transform="translate(0.000000,1024.000000) scale(0.100000,-0.100000)"
fill="#000000" stroke="none">
<path d="M1020 6556 c-85 -24 -173 -77 -240 -145 -267 -269 -263 -782 8 -1183
57 -84 129 -173 257 -318 170 -193 255 -304 304 -400 66 -129 86 -218 86 -392
0 -149 10 -157 26 -21 17 137 7 312 -25 408 -42 130 -173 338 -357 566 -106
132 -163 217 -219 328 -90 181 -126 340 -118 519 15 297 190 522 407 522 159
0 270 -77 547 -381 72 -80 156 -162 186 -183 56 -38 144 -71 153 -57 2 5 -18
27 -46 51 -28 23 -48 45 -45 48 4 3 31 9 61 13 118 16 247 97 430 269 207 196
277 235 420 235 82 0 97 -3 156 -32 276 -136 356 -538 186 -941 -48 -111 -107
-206 -245 -389 -210 -278 -309 -446 -353 -595 -17 -57 -22 -108 -26 -238 -2
-91 0 -185 5 -210 9 -43 10 -42 12 35 1 79 3 97 15 185 17 118 77 264 158 385
23 33 121 155 218 271 261 311 354 456 419 654 52 159 62 381 24 530 -60 235
-221 411 -425 465 -72 19 -192 19 -260 -1 -145 -43 -259 -129 -407 -309 -118
-143 -231 -252 -293 -282 -94 -46 -86 -53 -418 338 -121 142 -250 233 -369
258 -68 14 -174 13 -232 -3z"/>
<path d="M1050 6083 c-48 -25 -82 -78 -78 -123 2 -28 8 -36 27 -38 17 -3 30 4
43 20 12 16 18 19 18 8 0 -20 120 -218 176 -290 105 -137 290 -288 432 -351
129 -58 202 -73 362 -73 177 0 240 14 395 89 220 107 393 287 527 547 l45 87
21 -27 21 -27 20 23 c42 49 -22 152 -105 168 -37 7 -113 -16 -133 -40 -21 -25
-1 -48 35 -44 19 2 34 1 34 -3 0 -14 -107 -104 -185 -154 -175 -114 -304 -169
-472 -201 -104 -20 -301 -23 -388 -5 -237 49 -476 167 -630 313 -59 56 -59 57
-30 55 39 -3 41 28 4 55 -37 28 -97 33 -139 11z m465 -452 c106 -52 220 -91
325 -112 85 -16 299 -16 375 0 173 37 382 126 514 218 35 24 65 43 67 41 1 -2
-34 -45 -78 -97 -143 -165 -309 -275 -483 -322 -115 -31 -281 -31 -390 0 -111
30 -267 109 -350 176 -65 52 -254 251 -255 267 0 4 39 -21 88 -57 48 -36 132
-87 187 -114z"/>
<path d="M4327 5301 c-98 -40 -152 -100 -183 -207 -48 -166 41 -346 194 -390
110 -32 244 -1 314 73 15 15 39 55 54 88 24 51 28 73 28 145 0 70 -4 95 -25
140 -51 109 -131 161 -259 167 -57 2 -86 -1 -123 -16z m167 -115 c119 -50 134
-267 24 -349 -14 -11 -48 -22 -75 -24 -82 -8 -146 51 -162 148 -26 160 85 278
213 225z"/>
<path d="M5009 5305 c-61 -19 -141 -95 -170 -160 -30 -68 -36 -174 -14 -250
13 -46 28 -70 73 -115 87 -87 188 -111 313 -74 42 12 66 28 110 73 73 75 92
129 87 249 -5 135 -57 216 -167 265 -59 26 -170 32 -232 12z m176 -128 c108
-60 116 -265 14 -338 -26 -19 -47 -24 -91 -24 -51 0 -60 3 -93 35 -94 91 -78
277 29 330 53 26 91 25 141 -3z"/>
<path d="M7515 5305 c-58 -21 -112 -82 -120 -138 -15 -100 25 -155 152 -206
44 -18 90 -39 102 -47 29 -20 28 -68 -1 -88 -42 -30 -151 -13 -199 30 -15 14
-20 12 -48 -23 -17 -21 -31 -43 -31 -49 0 -21 57 -61 110 -79 65 -22 179 -17
233 9 111 54 130 229 33 300 -17 13 -62 35 -101 50 -94 37 -115 52 -115 81 0
53 79 71 158 35 l44 -20 26 32 c44 51 45 55 13 78 -72 51 -172 65 -256 35z"/>
<path d="M3590 5005 l0 -305 143 0 c155 0 205 9 255 46 43 34 62 73 62 133 0
56 -28 99 -82 127 l-30 16 30 18 c62 38 82 133 42 198 -36 59 -82 72 -262 72
l-158 0 0 -305z m270 182 c18 -9 26 -22 28 -48 4 -50 -23 -72 -98 -77 l-60 -4
0 71 0 71 53 0 c28 0 63 -6 77 -13z m13 -238 c30 -16 37 -28 37 -66 0 -46 -37
-68 -115 -68 l-60 0 -3 73 -3 72 61 0 c34 0 71 -5 83 -11z"/>
<path d="M5510 5005 l0 -305 65 0 65 0 0 128 c0 70 4 132 8 138 4 7 46 -43
107 -127 l100 -138 83 -1 c45 0 82 3 82 6 0 3 -51 72 -113 152 -63 81 -117
153 -121 160 -5 8 29 56 96 135 56 67 108 128 115 135 7 7 13 15 13 18 0 2
-37 4 -82 3 l-83 0 -49 -64 c-27 -35 -73 -89 -102 -122 l-53 -58 -1 123 0 122
-65 0 -65 0 0 -305z"/>
<path d="M6080 5005 l0 -305 65 0 65 0 2 208 3 207 18 -40 c10 -22 41 -91 70
-153 l52 -113 44 3 43 3 67 147 66 148 3 -205 2 -205 65 0 65 0 0 305 0 306
-87 -3 -86 -3 -65 -140 c-35 -77 -67 -143 -70 -147 -4 -4 -37 59 -74 140 l-67
147 -91 3 -90 3 0 -306z"/>
<path d="M6780 5299 c0 -6 8 -23 18 -37 10 -15 60 -99 110 -187 l92 -161 0
-107 0 -107 65 0 65 0 0 106 0 106 114 199 115 199 -78 0 -78 0 -65 -121 c-35
-67 -68 -122 -72 -123 -4 0 -36 54 -69 121 l-62 122 -77 1 c-50 0 -78 -4 -78
-11z"/>
<path d="M7900 5005 l0 -305 65 0 65 0 1 218 1 217 25 -55 c13 -30 45 -99 71
-153 l45 -98 46 3 45 3 62 133 c34 73 65 136 68 139 3 4 6 -87 6 -200 l0 -207
65 0 65 0 0 305 0 305 -86 0 -85 0 -46 -97 c-25 -53 -56 -122 -69 -152 l-25
-55 -58 129 c-87 195 -67 175 -171 175 l-90 0 0 -305z"/>
<path d="M8660 5005 l0 -305 70 0 70 0 0 305 0 305 -70 0 -70 0 0 -305z"/>
<path d="M8920 5005 l0 -305 200 0 200 0 0 55 0 55 -130 0 -130 0 0 250 0 250
-70 0 -70 0 0 -305z"/>
<path d="M9390 5005 l0 -305 205 0 205 0 0 55 0 55 -135 0 -135 0 0 70 0 70
110 0 110 0 0 55 0 55 -110 0 -110 0 0 65 0 65 125 0 125 0 0 60 0 60 -195 0
-195 0 0 -305z"/>
<path d="M3034 4843 c-3 -16 -23 -88 -45 -160 -68 -232 -139 -395 -234 -538
-72 -107 -128 -163 -204 -202 -78 -40 -137 -43 -201 -10 -71 36 -81 66 -92
280 -14 291 -49 380 -167 422 -83 29 -147 13 -212 -54 -68 -70 -79 -112 -90
-341 -11 -231 -23 -268 -98 -307 -113 -59 -252 -2 -371 153 -116 149 -218 382
-291 664 -42 163 -48 110 -13 -120 43 -285 159 -548 314 -714 91 -98 194 -143
295 -130 66 8 159 58 197 106 59 75 70 123 77 338 7 216 15 244 74 281 55 34
120 10 153 -58 15 -32 19 -73 25 -243 5 -183 8 -211 29 -257 44 -103 146 -167
265 -167 118 -1 211 62 328 219 142 191 255 515 274 782 6 81 -1 110 -13 56z"/>
</g>
</svg>
